<svg xmlns="http://www.w3.org/2000/svg" viewBox="0 0 64 64">
  <defs>
    <linearGradient id="bg" x1="0" y1="0" x2="1" y2="1">
      <stop offset="0%" stop-color="#e53e3e"/>
      <stop offset="50%" stop-color="#ed8936"/>
      <stop offset="100%" stop-color="#ecc94b"/>
    </linearGradient>
  </defs>
  <rect width="64" height="64" rx="12" fill="url(#bg)"/>
  <!-- V with leaf -->
  <path d="M14 18 L24 46 C24.5 47.5 25.5 47.5 26 46 L38 18" fill="none" stroke="#276749" stroke-width="6" stroke-linecap="round" stroke-linejoin="round"/>
  <path d="M14 18 Q8 10 16 8 Q22 7 24 14" fill="#276749" stroke="none"/>
  <!-- Vietnam map (D shape) -->
  <path d="M36 12 C37 10 39 9 41 10 C43 11 44 13 43 16 C42 19 41 22 42 25 C43 28 44 30 43 33 C42 36 40 39 39 42 C38 45 37 48 36 50 C35 52 34 53 33 52 C34 49 35 46 36 43 C37 40 38 37 38 34 C38 31 37 28 37 25 C37 22 38 19 38 16 C38 14 37 13 36 12Z" fill="#276749"/>
  <!-- Dots -->
  <circle cx="48" cy="42" r="1.5" fill="#276749"/>
  <circle cx="52" cy="40" r="1.5" fill="#276749"/>
  <circle cx="50" cy="45" r="1.5" fill="#276749"/>
  <circle cx="54" cy="44" r="1.5" fill="#276749"/>
  <circle cx="48" cy="48" r="1.5" fill="#276749"/>
  <circle cx="52" cy="48" r="1.5" fill="#276749"/>
</svg>
